<mxfile host="app.diagrams.net" modified="2022-09-09T19:08:43.312Z" agent="5.0 (Windows NT 10.0; Win64; x64) AppleWebKit/537.36 (KHTML, like Gecko) Chrome/105.0.0.0 Safari/537.36 Edg/105.0.1343.27" etag="3gAPBANpEp4HMIDh_JKQ" version="16.6.6" type="github">
  <diagram id="fhmz8rWZUhe7rHVmVunX" name="Page-1">
    <mxGraphModel dx="1792" dy="666" grid="1" gridSize="10" guides="1" tooltips="1" connect="1" arrows="1" fold="1" page="1" pageScale="1" pageWidth="850" pageHeight="1100" math="0" shadow="0">
      <root>
        <mxCell id="0" />
        <mxCell id="1" parent="0" />
        <mxCell id="Pd-UetmijkPzAP75kOQu-7" style="edgeStyle=orthogonalEdgeStyle;rounded=0;orthogonalLoop=1;jettySize=auto;html=1;" edge="1" parent="1" source="Pd-UetmijkPzAP75kOQu-1" target="Pd-UetmijkPzAP75kOQu-2">
          <mxGeometry relative="1" as="geometry" />
        </mxCell>
        <mxCell id="Pd-UetmijkPzAP75kOQu-8" style="edgeStyle=orthogonalEdgeStyle;rounded=0;orthogonalLoop=1;jettySize=auto;html=1;" edge="1" parent="1" source="Pd-UetmijkPzAP75kOQu-1" target="Pd-UetmijkPzAP75kOQu-3">
          <mxGeometry relative="1" as="geometry" />
        </mxCell>
        <mxCell id="Pd-UetmijkPzAP75kOQu-1" value="Active DM" style="whiteSpace=wrap;html=1;" vertex="1" parent="1">
          <mxGeometry x="240" y="130" width="120" height="60" as="geometry" />
        </mxCell>
        <mxCell id="Pd-UetmijkPzAP75kOQu-9" style="edgeStyle=orthogonalEdgeStyle;rounded=0;orthogonalLoop=1;jettySize=auto;html=1;" edge="1" parent="1" source="Pd-UetmijkPzAP75kOQu-2" target="Pd-UetmijkPzAP75kOQu-6">
          <mxGeometry relative="1" as="geometry" />
        </mxCell>
        <mxCell id="Pd-UetmijkPzAP75kOQu-17" style="edgeStyle=orthogonalEdgeStyle;rounded=0;orthogonalLoop=1;jettySize=auto;html=1;entryX=0;entryY=0.5;entryDx=0;entryDy=0;" edge="1" parent="1" source="Pd-UetmijkPzAP75kOQu-2" target="Pd-UetmijkPzAP75kOQu-10">
          <mxGeometry relative="1" as="geometry" />
        </mxCell>
        <mxCell id="Pd-UetmijkPzAP75kOQu-2" value="Trading" style="whiteSpace=wrap;html=1;" vertex="1" parent="1">
          <mxGeometry x="80" y="270" width="120" height="60" as="geometry" />
        </mxCell>
        <mxCell id="Pd-UetmijkPzAP75kOQu-15" style="edgeStyle=orthogonalEdgeStyle;rounded=0;orthogonalLoop=1;jettySize=auto;html=1;entryX=1;entryY=0.5;entryDx=0;entryDy=0;" edge="1" parent="1" source="Pd-UetmijkPzAP75kOQu-3" target="Pd-UetmijkPzAP75kOQu-10">
          <mxGeometry relative="1" as="geometry" />
        </mxCell>
        <mxCell id="Pd-UetmijkPzAP75kOQu-16" style="edgeStyle=orthogonalEdgeStyle;rounded=0;orthogonalLoop=1;jettySize=auto;html=1;" edge="1" parent="1" source="Pd-UetmijkPzAP75kOQu-3" target="Pd-UetmijkPzAP75kOQu-11">
          <mxGeometry relative="1" as="geometry" />
        </mxCell>
        <mxCell id="Pd-UetmijkPzAP75kOQu-3" value="Investment" style="whiteSpace=wrap;html=1;" vertex="1" parent="1">
          <mxGeometry x="400" y="270" width="120" height="60" as="geometry" />
        </mxCell>
        <mxCell id="Pd-UetmijkPzAP75kOQu-4" value="&lt;h1&gt;Trading&lt;/h1&gt;&lt;p&gt;* Mainly Technical in Nature&lt;/p&gt;&lt;p&gt;* Days to Months&lt;/p&gt;&lt;p&gt;* Look to exploit dislocation across and within asset classes&lt;/p&gt;&lt;p&gt;* Alpha trading due to&lt;/p&gt;&lt;p&gt;&lt;span style=&quot;white-space: pre&quot;&gt;	&lt;/span&gt;** Market Sudden Event&lt;br&gt;&lt;/p&gt;&lt;p&gt;&lt;span style=&quot;white-space: pre&quot;&gt;	&lt;/span&gt;** Exogenous Shocks to supply or demand&lt;br&gt;&lt;/p&gt;&lt;p&gt;&lt;span style=&quot;white-space: pre&quot;&gt;	&lt;/span&gt;** Diverse investor groups having different term preferences&lt;br&gt;&lt;/p&gt;&lt;p&gt;&lt;span style=&quot;white-space: pre&quot;&gt;	&lt;/span&gt;** Recent Downgrades in Credit Ratings&lt;/p&gt;" style="text;html=1;strokeColor=none;fillColor=none;spacing=5;spacingTop=-20;whiteSpace=wrap;overflow=hidden;rounded=0;" vertex="1" parent="1">
          <mxGeometry x="-270" y="110" width="280" height="340" as="geometry" />
        </mxCell>
        <mxCell id="Pd-UetmijkPzAP75kOQu-5" value="&lt;h1&gt;Investment&lt;/h1&gt;&lt;p&gt;* Relative Value&lt;/p&gt;&lt;p&gt;* Longer than 12 months&lt;/p&gt;" style="text;html=1;strokeColor=none;fillColor=none;spacing=5;spacingTop=-20;whiteSpace=wrap;overflow=hidden;rounded=0;" vertex="1" parent="1">
          <mxGeometry x="590" y="240" width="190" height="120" as="geometry" />
        </mxCell>
        <mxCell id="Pd-UetmijkPzAP75kOQu-6" value="Macro Credit" style="whiteSpace=wrap;html=1;" vertex="1" parent="1">
          <mxGeometry y="430" width="120" height="60" as="geometry" />
        </mxCell>
        <mxCell id="Pd-UetmijkPzAP75kOQu-10" value="Corporates Bonds" style="whiteSpace=wrap;html=1;" vertex="1" parent="1">
          <mxGeometry x="240" y="430" width="120" height="60" as="geometry" />
        </mxCell>
        <mxCell id="Pd-UetmijkPzAP75kOQu-11" value="Structured Credit" style="whiteSpace=wrap;html=1;" vertex="1" parent="1">
          <mxGeometry x="480" y="430" width="120" height="60" as="geometry" />
        </mxCell>
      </root>
    </mxGraphModel>
  </diagram>
</mxfile>
